<svg width="405" height="224" viewBox="0 0 405 224" fill="none" xmlns="http://www.w3.org/2000/svg">
<path d="M131.816 111.834C131.816 116.09 130.362 119.442 127.453 121.892C124.575 124.311 120.427 125.658 115.007 125.933V129.424H108.164V125.887C102.715 125.581 98.5354 124.219 95.6267 121.8C92.7487 119.351 91.3097 116.029 91.3097 111.834C91.3097 107.609 92.7487 104.302 95.6267 101.914C98.5354 99.4953 102.715 98.1175 108.164 97.7807V94.4741H115.007V97.7348C120.427 98.041 124.575 99.4187 127.453 101.868C130.362 104.318 131.816 107.639 131.816 111.834ZM115.007 120.101C118.253 119.795 120.672 118.968 122.264 117.621C123.856 116.243 124.652 114.299 124.652 111.788C124.652 106.889 121.437 104.164 115.007 103.613V120.101ZM98.52 111.834C98.52 116.672 101.735 119.427 108.164 120.101V103.613C104.888 103.919 102.454 104.746 100.862 106.093C99.3008 107.41 98.52 109.323 98.52 111.834ZM151.39 102.924C153.686 102.924 155.768 103.46 157.636 104.532C159.534 105.573 161.019 107.058 162.091 108.987C163.162 110.885 163.698 113.105 163.698 115.646C163.698 118.187 163.162 120.422 162.091 122.351C161.019 124.249 159.534 125.734 157.636 126.806C155.768 127.847 153.686 128.367 151.39 128.367C148.236 128.367 145.756 127.372 143.95 125.382V136.91H136.785V103.292H143.628V106.139C145.404 103.996 147.991 102.924 151.39 102.924ZM150.15 122.489C151.987 122.489 153.487 121.877 154.651 120.652C155.845 119.397 156.442 117.728 156.442 115.646C156.442 113.564 155.845 111.911 154.651 110.686C153.487 109.431 151.987 108.803 150.15 108.803C148.313 108.803 146.797 109.431 145.603 110.686C144.44 111.911 143.858 113.564 143.858 115.646C143.858 117.728 144.44 119.397 145.603 120.652C146.797 121.877 148.313 122.489 150.15 122.489ZM168.719 103.292H175.838V117.988L187.87 103.292H194.438V128H187.319V113.304L175.333 128H168.719V103.292ZM225.023 103.292V128H217.858V109.17H210.051L209.821 113.533C209.699 116.779 209.393 119.473 208.903 121.616C208.413 123.76 207.617 125.443 206.515 126.668C205.412 127.893 203.881 128.505 201.922 128.505C200.881 128.505 199.641 128.321 198.202 127.954L198.569 122.076C199.059 122.137 199.411 122.167 199.626 122.167C200.697 122.167 201.493 121.785 202.014 121.019C202.565 120.223 202.932 119.228 203.116 118.034C203.3 116.809 203.438 115.202 203.529 113.212L203.897 103.292H225.023ZM241.511 102.924C245.338 102.924 248.277 103.843 250.329 105.68C252.38 107.486 253.406 110.227 253.406 113.901V128H246.701V124.923C245.353 127.219 242.843 128.367 239.169 128.367C237.27 128.367 235.617 128.046 234.209 127.403C232.831 126.76 231.775 125.872 231.04 124.739C230.305 123.606 229.938 122.32 229.938 120.881C229.938 118.585 230.795 116.779 232.509 115.462C234.255 114.146 236.934 113.487 240.546 113.487H246.241C246.241 111.926 245.767 110.732 244.818 109.905C243.868 109.048 242.445 108.619 240.546 108.619C239.23 108.619 237.929 108.834 236.643 109.262C235.387 109.66 234.316 110.211 233.428 110.916L230.856 105.91C232.203 104.96 233.811 104.226 235.678 103.705C237.577 103.185 239.521 102.924 241.511 102.924ZM240.96 123.545C242.184 123.545 243.271 123.27 244.22 122.719C245.17 122.137 245.843 121.295 246.241 120.193V117.667H241.327C238.388 117.667 236.918 118.631 236.918 120.56C236.918 121.479 237.27 122.213 237.975 122.764C238.709 123.285 239.704 123.545 240.96 123.545ZM259.629 103.292H266.748V112.936H277.495V103.292H284.659V128H277.495V118.769H266.748V128H259.629V103.292ZM303.274 128.367C300.641 128.367 298.269 127.832 296.156 126.76C294.074 125.658 292.436 124.142 291.242 122.213C290.078 120.284 289.497 118.095 289.497 115.646C289.497 113.197 290.078 111.007 291.242 109.079C292.436 107.15 294.074 105.649 296.156 104.578C298.269 103.476 300.641 102.924 303.274 102.924C305.877 102.924 308.143 103.476 310.072 104.578C312.031 105.649 313.455 107.196 314.343 109.216L308.786 112.201C307.5 109.936 305.647 108.803 303.229 108.803C301.361 108.803 299.815 109.415 298.59 110.64C297.365 111.865 296.753 113.533 296.753 115.646C296.753 117.759 297.365 119.427 298.59 120.652C299.815 121.877 301.361 122.489 303.229 122.489C305.678 122.489 307.53 121.356 308.786 119.09L314.343 122.121C313.455 124.081 312.031 125.612 310.072 126.714C308.143 127.816 305.877 128.367 303.274 128.367Z" fill="black"/>
</svg>
